<svg id="Layer_1" enable-background="new 0 0 128 128" height="512" viewBox="0 0 128 128" width="512" xmlns="http://www.w3.org/2000/svg"><path d="m86.766 9.339h-7.367c-19.157 0-34.743 15.585-34.743 34.743v7.367c0 1.463.102 2.902.278 4.318-.474-.027-.951-.043-1.431-.043h-7.707c-13.954 0-25.306 11.352-25.306 25.306v9.458c0 11.825 8.849 21.793 20.414 23.339l-3.468 6.354c-.214.393-.142.879.177 1.193.192.188.445.286.701.286.169 0 .34-.043.495-.131l12.953-7.389c.112-.064.241-.098.372-.098h1.369c13.954 0 25.306-11.352 25.306-25.306v-4.201c3.341 1.072 6.898 1.656 10.59 1.656.48 0 .954.125 1.371.363l16.883 9.631c.155.088.326.131.495.131.256 0 .509-.098.701-.286.319-.313.391-.8.177-1.193l-4.538-8.313c-.095-.173-.045-.325-.008-.4.039-.076.132-.208.332-.235 15.219-2.104 26.696-15.292 26.696-30.674v-11.133c.001-19.157-15.585-34.743-34.742-34.743z" fill="#e6e7e8"/><path d="m42.095 52.863c-.852-.09-1.716-.139-2.591-.139h-7.707c-13.424 0-24.306 10.882-24.306 24.306v9.458c0 11.938 9.277 21.703 21.014 22.496l-4.19 7.677 12.952-7.388c.264-.151.564-.23.868-.23h1.369c13.424 0 24.306-10.882 24.306-24.306v-5.589c-11.291-4.129-19.752-14.119-21.715-26.285z" fill="#fff"/><path d="m42.095 52.863c-.852-.09-1.716-.139-2.591-.139h-4.707c-13.424 0-24.306 10.882-24.306 24.306v9.458c0 11.521 8.64 21.019 19.794 22.38.576.07.911.682.633 1.191l-2.247 4.116 8.596-4.903c.264-.151.563-.23.868-.23h1.369c13.424 0 24.306-10.882 24.306-24.306v-5.589c-11.291-4.128-19.752-14.118-21.715-26.284z" fill="#6dc9f7"/><path d="m21.679 77.953c-2.145 0-3.883 1.738-3.883 3.883s1.738 3.883 3.883 3.883 3.883-1.739 3.883-3.883-1.739-3.883-3.883-3.883z" fill="#fff"/><path d="m35.65 77.953c-2.145 0-3.883 1.738-3.883 3.883s1.739 3.883 3.883 3.883 3.883-1.739 3.883-3.883-1.738-3.883-3.883-3.883z" fill="#fff"/><path d="m49.622 77.953c-2.145 0-3.883 1.738-3.883 3.883s1.739 3.883 3.883 3.883 3.883-1.739 3.883-3.883-1.739-3.883-3.883-3.883z" fill="#fff"/><path d="m82.766 6.339h-7.366c-18.636 0-33.743 15.107-33.743 33.743v7.367c0 18.636 15.107 33.743 33.743 33.743.654 0 1.298.171 1.866.495l16.883 9.631-4.538-8.313c-.481-.882.069-1.967 1.065-2.105 14.594-2.018 25.833-14.535 25.833-29.684v-11.134c0-18.635-15.107-33.743-33.743-33.743z" fill="#fa759e"/><path d="m62.242 93.4c-.507-.218-1.096.017-1.313.524-.521 1.213-1.151 2.392-1.874 3.502-.301.463-.17 1.083.293 1.384.168.109.357.162.544.162.327 0 .647-.16.839-.455.785-1.207 1.469-2.486 2.035-3.804.218-.507-.017-1.095-.524-1.313z" fill="#3a2c60"/><path d="m82.766 5.339h-7.367c-19.157 0-34.743 15.585-34.743 34.743v7.367c0 1.464.102 2.904.278 4.321-.474-.027-.951-.046-1.432-.046h-7.707c-13.954 0-25.306 11.352-25.306 25.306v9.458c0 11.825 8.85 21.793 20.414 23.339l-3.468 6.354c-.214.393-.142.879.178 1.193.192.188.445.286.701.286.169 0 .34-.043.495-.131l12.951-7.388c.113-.064.242-.099.373-.099h1.369c7.017 0 13.78-2.952 18.555-8.099.376-.405.352-1.038-.053-1.413-.404-.375-1.038-.353-1.413.053-4.398 4.74-10.627 7.459-17.089 7.459h-1.369c-.478 0-.949.125-1.364.361l-9.889 5.642 2.501-4.583c.163-.299.163-.661-.001-.96s-.469-.494-.809-.517c-11.26-.76-20.081-10.204-20.081-21.498v-9.457c0-12.851 10.455-23.306 23.306-23.306h7.707c.588 0 1.169.032 1.746.077 2.212 11.916 10.52 21.711 21.56 26.02v4.916c0 1.701-.184 3.397-.546 5.04-.119.54.222 1.073.761 1.192.54.118 1.072-.222 1.192-.761.394-1.785.593-3.625.593-5.471v-4.201c3.341 1.072 6.898 1.656 10.59 1.656.48 0 .954.125 1.371.363l16.883 9.63c.155.088.326.131.495.131.256 0 .509-.098.701-.286.319-.313.391-.8.177-1.193l-4.538-8.313c-.095-.173-.045-.325-.008-.4.039-.076.132-.208.332-.235 15.219-2.105 26.696-15.292 26.696-30.674v-11.133c.001-19.157-15.585-34.743-34.742-34.743zm32.743 45.876c0 14.389-10.735 26.725-24.971 28.693-.794.11-1.483.602-1.843 1.316-.359.713-.345 1.557.038 2.258l2.849 5.219-13.821-7.884c-.718-.41-1.535-.626-2.362-.626-18.054 0-32.743-14.688-32.743-32.743v-7.367c0-18.054 14.688-32.743 32.743-32.743h7.367c18.055 0 32.743 14.688 32.743 32.743z" fill="#3a2c60"/><g fill="#fff"><path d="m72.056 32.274h-13.765c-2.822 0-5.109 2.287-5.109 5.109 0 2.822 2.287 5.109 5.109 5.109h13.764c2.822 0 5.109-2.287 5.109-5.109.001-2.821-2.287-5.109-5.108-5.109z"/><path d="m99.644 46.029h-13.765c-2.822 0-5.109 2.287-5.109 5.109 0 2.822 2.287 5.109 5.109 5.109h13.764c2.822 0 5.109-2.287 5.109-5.109 0-2.822-2.287-5.109-5.108-5.109z"/><path d="m85.879 42.492c2.822 0 5.109-2.287 5.109-5.109v-13.764c0-2.822-2.287-5.109-5.109-5.109s-5.109 2.287-5.109 5.109v13.764c0 2.822 2.288 5.109 5.109 5.109z"/><path d="m72.056 46.22c-2.822 0-5.109 2.287-5.109 5.109v13.764c0 2.822 2.287 5.109 5.109 5.109 2.822 0 5.109-2.287 5.109-5.109v-13.765c0-2.821-2.288-5.108-5.109-5.108z"/><path d="m53.035 51.138c0 2.908 2.358 5.266 5.266 5.266s5.266-2.358 5.266-5.266v-5.266h-5.266c-2.908 0-5.266 2.358-5.266 5.266z"/><path d="m71.899 18.254c-2.908 0-5.266 2.358-5.266 5.266s2.358 5.266 5.266 5.266h5.266v-5.266c0-2.909-2.358-5.266-5.266-5.266z"/><path d="m105.131 37.383c0-2.908-2.358-5.266-5.266-5.266s-5.266 2.358-5.266 5.266v5.266h5.266c2.908 0 5.266-2.357 5.266-5.266z"/><path d="m85.879 59.626h-5.266v5.266c0 2.908 2.358 5.266 5.266 5.266s5.266-2.358 5.266-5.266-2.357-5.266-5.266-5.266z"/></g></svg>